# xmcd
#
# Track frame offsets: 
#        150
#        16230
#        35480
#        50545
#        67040
#        85415
#        103212
#        121880
#        135200
#        150180
#
# Disc length: 2239 seconds
#
# Revision: 0
# Processed by: cddbd v1.5.2PL0 Copyright (c) Steve Scherf et al.
# Submitted via: ExactAudioCopy v0.95b4
#
DISCID=7808bd0a
DTITLE=Various Artist - Total Country Volume 3
DYEAR=2005
DGENRE=Country
TTITLE0=Lonestar - Smile
TTITLE1=Travis Tritt - Best of Intentions
TTITLE2=Jo Dee Messina - That's the Way
TTITLE3=Collin Raye - Couldn't Last a Moment
TTITLE4=Mark Wills - Back at One
TTITLE5=Clint Black - Something That We Do
TTITLE6=Billy Gilman - One Voice
TTITLE7=Joe Diffie - It's Always Somethin'
TTITLE8=Cyndi Thompson - What I Really Meant to Say
TTITLE9=Vince Gill - I Still Believe in You
EXTD=
EXTT0=
EXTT1=
EXTT2=
EXTT3=
EXTT4=
EXTT5=
EXTT6=
EXTT7=
EXTT8=
EXTT9=
PLAYORDER=
